<svg width="447" height="113" viewBox="0 0 447 113" fill="none" xmlns="http://www.w3.org/2000/svg">
<rect x="360" y="14" width="65" height="64" rx="14" fill="#FEB337"/>
<rect x="371" y="25" width="64" height="64" rx="14" fill="#4979EA"/>
<rect x="383" y="35" width="64" height="64" rx="14" fill="#FEB337"/>
<path d="M8.1 34.83H1.44V46.98H8.1V64.71C8.1 72.9 11.16 82.35 23.85 82.35C30.42 82.35 35.55 79.47 35.55 79.47L31.59 66.6C31.59 66.6 29.7 68.04 27.63 68.04C25.11 68.04 24.03 65.97 24.03 61.65V46.98H33.75V34.83H24.03V17.64H8.1V34.83ZM40.2778 57.96C40.2778 72.18 51.4378 82.35 68.0878 82.35C84.0178 82.35 95.6278 72.18 95.6278 57.96C95.6278 43.56 83.3878 33.48 68.0878 33.48C52.5178 33.48 40.2778 43.56 40.2778 57.96ZM57.1978 57.96C57.1978 51.57 61.9678 47.07 67.9978 47.07C73.9378 47.07 78.7078 51.57 78.7078 57.96C78.7078 64.26 74.2078 68.76 67.9978 68.76C61.5178 68.76 57.1978 64.26 57.1978 57.96ZM159.634 57.87C159.634 44.37 150.184 33.48 136.684 33.48C130.384 33.48 124.984 36.27 121.564 40.05H121.384V34.83H105.634V104.4H121.564V76.59C125.344 80.28 130.474 82.35 136.684 82.35C150.184 82.35 159.634 71.37 159.634 57.87ZM142.714 57.87C142.714 64.26 137.944 68.76 131.914 68.76C125.974 68.76 121.204 64.26 121.204 57.87C121.204 51.57 125.704 47.07 131.914 47.07C138.394 47.07 142.714 51.57 142.714 57.87ZM166.44 57.96C166.44 71.46 175.89 82.35 189.39 82.35C195.69 82.35 201.09 79.56 204.51 75.78H204.69V81H220.44V3.6H204.51V39.24C200.73 35.55 195.6 33.48 189.39 33.48C175.89 33.48 166.44 44.46 166.44 57.96ZM183.36 57.96C183.36 51.57 188.13 47.07 194.16 47.07C200.1 47.07 204.87 51.57 204.87 57.96C204.87 64.26 200.37 68.76 194.16 68.76C187.68 68.76 183.36 64.26 183.36 57.96ZM248.935 34.83H233.005V60.66C233.005 76.14 240.745 82.35 258.025 82.35C275.305 82.35 283.045 76.14 283.045 60.66V34.83H267.115V56.79C267.115 65.88 264.685 69.39 258.025 69.39C251.365 69.39 248.935 65.88 248.935 56.79V34.83ZM349.668 57.87C349.668 44.37 340.218 33.48 326.718 33.48C320.418 33.48 315.018 36.27 311.598 40.05H311.418V34.83H295.668V104.4H311.598V76.59C315.378 80.28 320.508 82.35 326.718 82.35C340.218 82.35 349.668 71.37 349.668 57.87ZM332.748 57.87C332.748 64.26 327.978 68.76 321.948 68.76C316.008 68.76 311.238 64.26 311.238 57.87C311.238 51.57 315.738 47.07 321.948 47.07C328.428 47.07 332.748 51.57 332.748 57.87Z" fill="#262626"/>
</svg>
